# xmcd
#
# Track frame offsets: 
#        182
#        57437
#        118880
#        149132
#        194505
#        232387
#
# Disc length: 3485 seconds
#
# Revision: 3
# Processed by: cddbd v1.5.2PL0 Copyright (c) Steve Scherf et al.
# Submitted via: ExactAudioCopy v0.95b4
#
DISCID=680d9b06
DTITLE=Wes Montgomery - Twisted Blues
DYEAR=1965
DGENRE=Jazz
TTITLE0=Jingles
TTITLE1=Twisted Blues
TTITLE2=The Girl Next Door
TTITLE3=Impressions
TTITLE4=Here's that Rainy Day
TTITLE5=Four-On-Six
EXTD=
EXTT0=
EXTT1=
EXTT2=
EXTT3=
EXTT4=
EXTT5=
PLAYORDER=
